<?xml version="1.0" encoding="utf-8"?>
<!-- Generator: Adobe Illustrator 19.2.1, SVG Export Plug-In . SVG Version: 6.00 Build 0)  -->
<svg version="1.1" id="Layer_1" xmlns="http://www.w3.org/2000/svg" xmlns:xlink="http://www.w3.org/1999/xlink" x="0px" y="0px"
	 viewBox="0 0 101.1 101.2" style="enable-background:new 0 0 101.1 101.2;" xml:space="preserve">
<style type="text/css">
	.st0{fill:#FFFFFF;}
</style>
<path class="st0" d="M18.5,43.6l39,39c-4.8-0.1-9.6-0.9-14.1-2.7c-1.8-0.3-9.1-1.5-11.9,1.3c-6.4,6.4-12.2,15.1-15.4,18.3
	c-3.2,3.2-7.7,1.9-12-2.4c-4.3-4.3-5.5-8.9-2.4-12c3.1-3.1,11.9-9,18.3-15.4c2.9-2.9,1.4-11,1.2-12.2C19.4,53,18.6,48.3,18.5,43.6z
	 M89.5,11.6c-19-19-43.9-12.3-59.4,3.2c-5.8,5.7-9.4,12.8-10.9,20.2l46.9,46.9c7.4-1.5,14.5-5.1,20.2-10.8
	C101.9,55.5,108.5,30.6,89.5,11.6z"/>
</svg>
